<?xml version="1.0" standalone="no"?>
<!DOCTYPE svg PUBLIC "-//W3C//DTD SVG 20010904//EN"
 "http://www.w3.org/TR/2001/REC-SVG-20010904/DTD/svg10.dtd">
<svg version="1.0" xmlns="http://www.w3.org/2000/svg"
 width="500.000000pt" height="500.000000pt" viewBox="0 0 500.000000 500.000000"
 preserveAspectRatio="xMidYMid meet">

<g transform="translate(0.000000,500.000000) scale(0.100000,-0.100000)"
fill="#000000" stroke="none">
<path d="M1250 4994 c-153 -18 -319 -83 -443 -170 -26 -19 -51 -34 -55 -34
-19 0 -116 -113 -171 -198 -66 -103 -117 -216 -134 -297 -14 -67 -1 -98 47
-122 32 -15 36 -15 68 3 30 18 35 29 55 108 50 197 188 365 383 465 41 21 104
44 140 51 36 6 72 14 80 16 8 2 -3 -11 -25 -28 -22 -18 -71 -66 -110 -106 -84
-90 -265 -271 -366 -368 -41 -38 -104 -103 -141 -144 -66 -72 -68 -75 -68
-127 0 -45 -3 -53 -19 -53 -10 0 -30 -9 -45 -21 -23 -18 -26 -27 -26 -83 l0
-63 -42 -12 c-194 -56 -321 -278 -279 -483 30 -142 138 -261 271 -299 60 -17
66 -23 74 -69 10 -64 56 -202 83 -250 105 -186 122 -209 213 -300 90 -91 121
-113 297 -211 l43 -24 0 -91 0 -92 -202 -4 c-154 -4 -216 -9 -258 -22 -102
-32 -254 -109 -318 -160 -108 -87 -229 -282 -275 -444 -21 -74 -21 -95 -22
-587 l0 -510 29 -59 c37 -76 101 -140 174 -174 l57 -27 1230 0 1230 0 52 21
51 21 59 -20 c35 -12 83 -21 121 -21 54 0 74 6 145 43 l82 42 125 -30 c150
-37 443 -66 565 -56 158 13 312 36 407 61 l98 26 53 -31 c30 -17 82 -38 117
-47 54 -14 72 -14 123 -3 126 26 242 142 267 266 23 106 -22 227 -115 310
l-50 46 -1 366 c-1 334 -3 375 -22 468 -38 182 -106 315 -226 441 -125 132
-283 241 -408 281 -21 7 -38 17 -38 22 0 5 18 32 39 59 69 87 76 123 76 386
l0 231 -29 37 c-45 59 -92 76 -216 76 -116 0 -165 -15 -209 -64 -24 -25 -29
-26 -133 -26 -128 0 -172 -16 -209 -77 -23 -36 -24 -46 -24 -228 1 -172 3
-195 23 -246 12 -30 38 -74 57 -96 19 -23 35 -46 35 -51 0 -6 -17 -16 -37 -22
-119 -38 -309 -162 -377 -245 -21 -25 -52 -60 -69 -79 -39 -41 -118 -174 -142
-238 -10 -27 -21 -48 -25 -48 -4 0 -24 25 -45 56 -20 31 -71 91 -113 134 -65
65 -93 85 -175 124 -165 78 -213 88 -442 95 l-200 6 -3 87 -3 87 68 36 c218
113 284 172 417 370 90 134 132 232 160 366 13 66 15 68 88 94 63 22 172 106
205 158 46 72 65 151 61 247 -4 75 -8 93 -42 158 -56 105 -154 188 -268 226
-16 5 -18 23 -18 178 0 216 -19 316 -84 453 -127 268 -328 435 -621 515 -71
20 -109 23 -335 25 -140 2 -271 1 -290 -1z m605 -193 c94 -21 155 -46 155 -61
0 -6 -29 -41 -66 -78 -160 -165 -280 -285 -382 -383 l-110 -106 -113 -6 c-63
-3 -148 -11 -189 -17 -164 -25 -429 -103 -539 -160 -24 -12 -45 -19 -48 -16
-10 10 831 844 857 850 56 11 355 -4 435 -23z m347 -199 c64 -66 130 -175 170
-282 26 -70 23 -84 -32 -142 -28 -29 -64 -68 -81 -86 l-31 -34 -92 26 c-143
41 -262 64 -389 77 l-118 12 248 248 c136 137 251 249 254 249 3 0 35 -30 71
-68z m208 -576 l0 -45 -30 10 c-16 6 -30 14 -30 17 0 6 51 62 57 62 2 0 3 -20
3 -44z m-1990 -616 c0 -127 -4 -230 -9 -230 -5 0 -30 15 -57 33 -118 79 -141
259 -46 361 31 32 81 66 100 66 9 0 12 -53 12 -230z m2237 195 c87 -75 109
-189 58 -303 -25 -56 -50 -83 -102 -111 l-23 -12 0 231 c0 184 3 230 13 230 7
0 32 -16 54 -35z m-1928 -74 c78 -25 185 -28 258 -6 28 8 117 24 198 35 274
37 591 21 875 -44 107 -25 236 6 315 76 l35 30 0 -281 c0 -316 -8 -377 -66
-520 -48 -120 -88 -182 -178 -278 -81 -86 -201 -174 -297 -217 -205 -92 -583
-84 -775 18 -179 94 -338 256 -429 435 -15 30 -38 106 -51 170 -21 106 -24
141 -24 396 l0 279 38 -36 c23 -22 61 -43 101 -57z m3351 -879 c0 -196 -9
-248 -55 -307 -82 -108 -287 -112 -383 -7 -48 53 -62 113 -62 269 l0 133 85 0
85 0 0 -49 c0 -38 6 -56 24 -77 31 -37 84 -38 121 -4 23 22 25 30 25 122 l0
98 80 0 80 0 0 -178z m-2673 -563 c88 -11 205 -4 311 17 l32 7 0 -114 c0 -134
-9 -173 -53 -231 -120 -157 -366 -116 -432 72 -10 28 -15 81 -15 158 l0 115
32 -7 c17 -3 74 -11 125 -17z m2580 -25 c309 -63 537 -267 640 -569 35 -103
43 -207 43 -563 0 -363 0 -360 73 -439 81 -88 100 -159 63 -240 -35 -78 -132
-98 -240 -49 -87 40 -142 48 -207 30 -224 -60 -593 -75 -856 -35 -79 12 -155
26 -170 32 -16 6 -55 11 -88 12 -48 0 -73 -6 -128 -32 -37 -18 -83 -35 -101
-38 -47 -7 -140 35 -159 74 -42 84 -28 142 54 228 88 92 89 95 90 372 0 378
13 564 42 648 40 114 105 238 155 295 119 136 344 259 517 283 72 10 202 6
272 -9z m-2907 -354 l0 -130 -210 0 -210 0 0 115 c0 90 3 117 14 121 37 14
124 22 259 23 l147 1 0 -130z m1223 114 l27 -6 0 -119 0 -119 -204 0 -203 0
-6 68 c-4 37 -7 96 -7 131 l0 63 183 -5 c100 -3 194 -9 210 -13z m-1223 -489
l0 -85 -210 0 -210 0 0 85 0 85 210 0 210 0 0 -85z m1250 0 l0 -85 -210 0
-210 0 0 78 c0 43 3 82 7 85 3 4 98 7 210 7 l203 0 0 -85z m-1250 -380 l0
-125 -210 0 -210 0 0 125 0 125 210 0 210 0 0 -125z m1250 0 l0 -125 -210 0
-210 0 0 58 c0 31 3 87 7 125 l6 67 203 0 204 0 0 -125z m-92 -291 l92 -7 0
-79 0 -78 -207 2 -208 3 -3 69 c-2 38 -1 75 2 83 6 15 162 18 324 7z m-1158
-84 l0 -80 -210 0 -210 0 0 80 0 80 210 0 210 0 0 -80z m0 -330 l0 -80 -210 0
-210 0 0 80 0 80 210 0 210 0 0 -80z m1250 0 l0 -80 -210 0 -210 0 0 80 0 80
210 0 210 0 0 -80z"/>
<path d="M1109 2801 c-39 -40 -37 -69 11 -128 47 -59 124 -115 200 -144 67
-26 222 -37 299 -20 107 23 206 86 261 167 35 53 38 91 9 128 -35 44 -73 36
-133 -28 -66 -71 -125 -97 -232 -104 -120 -7 -192 20 -272 98 -70 70 -98 76
-143 31z"/>
</g>
</svg>
